<svg width="43" height="40" viewBox="0 0 43 40" fill="none" xmlns="http://www.w3.org/2000/svg">
<path d="M11.2193 1.06671L21.2648 8.99925L22.8852 10.2792L26.6098 13.2192L28.4175 14.647L42.3624 25.6605L32.0163 29.4865L23.4444 32.6573L5.82812 39.1703C5.82812 39.1703 -8.03423 18.2891 11.2193 1.06671Z" fill="#E8E0A6"/>
<path d="M15.1536 4.17255L42.3624 25.6605L10.8138 37.3278C10.8138 37.3278 -1.40996 21.6935 15.1536 4.17255Z" fill="#EEB51D"/>
<path d="M8.87604 34.0311L40.8902 25.3702L11.0277 36.497L8.87604 34.0311Z" fill="white"/>
<path d="M8.26227 15.7777C8.26227 15.7777 25.2858 14.6 41.332 25.4186L15.5968 4.2251C15.5968 4.2251 10.6363 9.07391 8.26227 15.7777Z" fill="#F58921"/>
<path d="M21.2647 8.99921L22.8852 10.2791L26.6097 13.2191L28.4175 14.6469C28.659 16.0134 28.4741 17.4201 27.8874 18.6801C27.3006 19.9401 26.3399 20.9937 25.1328 21.7008C23.9257 22.408 22.5295 22.7351 21.1298 22.6388C19.7301 22.5424 18.3933 22.0272 17.2969 21.1616C16.2006 20.2959 15.3967 19.1209 14.9923 17.7926C14.5878 16.4644 14.6018 15.0459 15.0325 13.7258C15.4632 12.4056 16.2901 11.2463 17.4033 10.402C18.5166 9.55775 19.8634 9.06846 21.2647 8.99921Z" fill="#BD3728"/>
<path d="M27.8765 25.4601C28.9229 25.576 29.8997 26.0358 30.6503 26.7659C31.4009 27.4959 31.882 28.454 32.0163 29.4865L23.4444 32.6573C22.9476 31.9209 22.6737 31.0596 22.6552 30.1747C22.6366 29.2897 22.8741 28.4179 23.3397 27.6619C23.8053 26.9058 24.4796 26.2969 25.2833 25.9069C26.087 25.5168 26.9867 25.3618 27.8765 25.4601Z" fill="#BD3728"/>
<path d="M15.8177 18.6264C15.8177 18.6264 24.5531 23.3494 28.9292 16.459C28.9292 16.459 25.2619 24.3888 19.6233 22.3044C14.5286 20.4191 15.8177 18.6264 15.8177 18.6264Z" fill="white"/>
<path d="M15.4151 15.1819C15.4151 15.1819 20.5587 9.98198 26.621 14.3194L20.795 9.03931C20.795 9.03931 15.1634 10.2874 15.4151 15.1819Z" fill="#8F251E"/>
<path d="M21.2647 8.99921L22.8852 10.2791L26.6097 13.2191L28.4175 14.6469C28.659 16.0134 28.4741 17.4201 27.8874 18.6801C27.3006 19.9401 26.3399 20.9937 25.1328 21.7008C23.9257 22.408 22.5295 22.7351 21.1298 22.6388C19.7301 22.5424 18.3933 22.0272 17.2969 21.1616C16.2006 20.2959 15.3967 19.1209 14.9923 17.7926C14.5878 16.4644 14.6018 15.0459 15.0325 13.7258C15.4632 12.4056 16.2901 11.2463 17.4033 10.402C18.5166 9.55775 19.8634 9.06846 21.2647 8.99921V8.99921Z" stroke="#763317" stroke-linecap="round" stroke-linejoin="round"/>
<path d="M23.6304 30.9211L30.9677 28.5534L31.1662 28.9819L23.8135 31.6745L23.6304 30.9211Z" fill="white"/>
<path d="M23.5255 29.4823C23.5255 29.4823 26.0882 26.505 30.5426 27.5679C30.5426 27.5679 28.2889 24.3888 24.7978 26.1788C21.3067 27.9687 23.5255 29.4823 23.5255 29.4823Z" fill="#8F251E"/>
<path d="M27.8765 25.4601C28.9229 25.576 29.8997 26.0358 30.6503 26.7659C31.4009 27.4959 31.882 28.454 32.0163 29.4865L23.4444 32.6573C22.9476 31.9209 22.6737 31.0596 22.6552 30.1747C22.6366 29.2897 22.8741 28.4179 23.3397 27.6619C23.8053 26.9058 24.4796 26.2969 25.2833 25.9069C26.087 25.5168 26.9867 25.3618 27.8765 25.4601V25.4601Z" stroke="#763317" stroke-linecap="round" stroke-linejoin="round"/>
<path d="M4.92639 35.5682C4.92639 35.5682 6.21546 35.6705 5.53457 22.7385L10.5678 36.7527L5.63803 38.6312L4.92639 35.5682Z" fill="white"/>
<path d="M1.64771 18.8351C1.64771 18.8351 6.75923 11.0048 10.2447 10.3303L14.8753 4.47249L11.2192 1.06671C11.2192 1.06671 3.85254 7.34336 1.64771 18.8351Z" fill="#EBCD93"/>
<path d="M11.2193 1.06671L21.2648 8.99925L22.8852 10.2792L26.6098 13.2192L28.4175 14.647L42.3624 25.6605L32.0163 29.4865L23.4444 32.6573L5.82812 39.1703C5.82812 39.1703 -8.03423 18.2891 11.2193 1.06671Z" stroke="#763317" stroke-linecap="round" stroke-linejoin="round"/>
<path d="M15.1536 4.17255L42.3624 25.6605L10.8138 37.3278C10.8138 37.3278 -1.40996 21.6935 15.1536 4.17255Z" stroke="#763317" stroke-linecap="round" stroke-linejoin="round"/>
</svg>
